<svg width="86" height="24" viewBox="0 0 86 24" fill="none" xmlns="http://www.w3.org/2000/svg">
<rect width="86" height="24" rx="12" fill="#CB92B1"/>
<path d="M12.9121 16.8008C13.2083 16.6901 13.4704 16.5241 13.6982 16.3027C13.9261 16.0814 14.0824 15.79 14.167 15.4287C14.2288 15.1715 14.2695 14.8542 14.2891 14.4766C14.3118 14.0957 14.3232 13.6139 14.3232 13.0312V8.56836H15.8857V13.0068L15.8906 14.0957C15.8906 14.4049 15.8841 14.6768 15.8711 14.9111C15.8581 15.1423 15.832 15.3571 15.793 15.5557C15.7116 15.9821 15.5293 16.3499 15.2461 16.6592C14.9629 16.9684 14.6406 17.2028 14.2793 17.3623C13.9212 17.5251 13.5908 17.6113 13.2881 17.6211L12.9121 16.8008ZM21.6768 14.4277H18.9473L18.4541 16H16.7842L19.5283 8.49023H21.1006L23.8691 16H22.1748L21.6768 14.4277ZM21.3203 13.3096L20.5146 10.7607L20.3047 9.99414L20.0898 10.7607L19.2939 13.3096H21.3203ZM25.4414 8.56836L26.8281 12.626L27.2236 14.042L27.624 12.626L28.9375 8.56836H30.5928L27.8584 16.0293H26.54L23.7764 8.56836H25.4414ZM35.3877 14.4277H32.6582L32.165 16H30.4951L33.2393 8.49023H34.8115L37.5801 16H35.8857L35.3877 14.4277ZM35.0312 13.3096L34.2256 10.7607L34.0156 9.99414L33.8008 10.7607L33.0049 13.3096H35.0312ZM38.4736 14.3936C38.7113 14.5238 38.9977 14.6344 39.333 14.7256C39.6683 14.8167 40.0199 14.8623 40.3877 14.8623C40.7881 14.8623 41.0697 14.8021 41.2324 14.6816C41.3952 14.5579 41.4766 14.3659 41.4766 14.1055C41.4766 13.9297 41.4359 13.7816 41.3545 13.6611C41.2731 13.5374 41.1348 13.4137 40.9395 13.29C40.7474 13.1663 40.4463 13.0036 40.0361 12.8018C39.4893 12.5316 39.0449 12.2158 38.7031 11.8545C38.3613 11.4932 38.1904 11.0391 38.1904 10.4922C38.1904 10.0234 38.3044 9.64095 38.5322 9.34473C38.7633 9.04525 39.0726 8.82878 39.46 8.69531C39.8506 8.55859 40.2917 8.49023 40.7832 8.49023C41.2064 8.49023 41.5905 8.53581 41.9355 8.62695C42.2839 8.7181 42.5394 8.81576 42.7021 8.91992L42.4482 10.126C42.2269 9.986 41.9844 9.87207 41.7207 9.78418C41.4603 9.69629 41.1624 9.65234 40.8271 9.65234C40.4333 9.65234 40.1484 9.71908 39.9727 9.85254C39.8001 9.98275 39.7139 10.1699 39.7139 10.4141C39.7139 10.5866 39.7562 10.7347 39.8408 10.8584C39.9287 10.9821 40.0573 11.1009 40.2266 11.2148C40.3958 11.3255 40.653 11.472 40.998 11.6543C41.4668 11.9017 41.8395 12.1247 42.1162 12.3232C42.3962 12.5186 42.6191 12.7529 42.7852 13.0264C42.9544 13.2998 43.0391 13.627 43.0391 14.0078C43.0391 14.444 42.9333 14.8184 42.7217 15.1309C42.5101 15.4401 42.2106 15.6761 41.8232 15.8389C41.4391 15.9984 40.9932 16.0781 40.4854 16.0781C40.1826 16.0781 39.8766 16.0537 39.5674 16.0049C39.2614 15.9593 38.9896 15.9023 38.752 15.834C38.5176 15.7656 38.3516 15.7005 38.2539 15.6387L38.4736 14.3936ZM47.541 8.49023C47.9023 8.49023 48.2018 8.50814 48.4395 8.54395C48.6803 8.57975 48.9375 8.63184 49.2109 8.7002C49.4095 8.74577 49.5267 8.77181 49.5625 8.77832L49.3379 10.1455C49.3184 10.1357 49.2337 10.0902 49.084 10.0088C48.9342 9.92415 48.7324 9.85579 48.4785 9.80371C48.2246 9.74837 47.9447 9.7207 47.6387 9.7207C47.235 9.7207 46.8704 9.81999 46.5449 10.0186C46.2227 10.2171 45.9671 10.5052 45.7783 10.8828C45.5928 11.2572 45.5 11.6982 45.5 12.2061C45.5 12.7204 45.5895 13.181 45.7686 13.5879C45.9508 13.9915 46.2113 14.3073 46.5498 14.5352C46.8916 14.763 47.2936 14.877 47.7559 14.877C47.9674 14.877 48.1888 14.8525 48.4199 14.8037C48.6543 14.7516 48.8659 14.6898 49.0547 14.6182C49.2467 14.5433 49.3883 14.4733 49.4795 14.4082L49.4844 15.6875C49.2793 15.7689 49.097 15.8356 48.9375 15.8877C48.7812 15.9398 48.5908 15.9837 48.3662 16.0195C48.1416 16.0586 47.8893 16.0781 47.6094 16.0781C46.8574 16.0781 46.2015 15.9219 45.6416 15.6094C45.0817 15.2936 44.6504 14.8509 44.3477 14.2812C44.0482 13.7116 43.8984 13.0524 43.8984 12.3037C43.8984 11.5062 44.0579 10.821 44.377 10.248C44.6992 9.67188 45.1354 9.23568 45.6855 8.93945C46.2389 8.63997 46.8574 8.49023 47.541 8.49023ZM56.501 16H54.7725C54.7399 15.9544 54.7074 15.9007 54.6748 15.8389C54.6423 15.7738 54.6064 15.6973 54.5674 15.6094L54.499 15.4629C54.4437 15.3457 54.3916 15.2236 54.3428 15.0967C54.2972 14.9665 54.2386 14.7939 54.167 14.5791C54.0661 14.2699 53.9766 14.0225 53.8984 13.8369C53.8236 13.6481 53.7292 13.4902 53.6152 13.3633C53.5013 13.2363 53.3662 13.1729 53.21 13.1729C52.8779 13.1859 52.5508 13.1924 52.2285 13.1924V16H50.6758V8.56836H51.3936C51.5596 8.56836 51.75 8.55859 51.9648 8.53906C52.1439 8.52604 52.3522 8.51465 52.5898 8.50488C52.8275 8.49512 53.0863 8.49023 53.3662 8.49023C54.1572 8.49023 54.8001 8.66276 55.2949 9.00781C55.793 9.34961 56.042 9.92578 56.042 10.7363C56.042 11.319 55.9362 11.7845 55.7246 12.1328C55.5163 12.4811 55.2103 12.735 54.8066 12.8945C54.9792 13.041 55.1289 13.2331 55.2559 13.4707C55.3861 13.7083 55.5391 14.0322 55.7148 14.4424C55.9036 14.8981 56.0632 15.2383 56.1934 15.4629L56.501 16ZM52.2285 12.0742C52.3913 12.0938 52.7314 12.1035 53.249 12.1035C53.6885 12.1035 54.0124 11.9782 54.2207 11.7275C54.429 11.4769 54.5332 11.1611 54.5332 10.7803C54.5332 10.5589 54.4974 10.3669 54.4258 10.2041C54.3574 10.0381 54.224 9.90462 54.0254 9.80371C53.8268 9.69954 53.5452 9.64746 53.1807 9.64746C52.7933 9.64746 52.4759 9.67676 52.2285 9.73535V12.0742ZM59.3135 8.56836V16H57.751V8.56836H59.3135ZM61.6816 8.56836C61.9779 8.56836 62.3701 8.55534 62.8584 8.5293C63.3141 8.50326 63.6527 8.49023 63.874 8.49023C64.7562 8.49023 65.4284 8.69531 65.8906 9.10547C66.3561 9.51562 66.5889 10.165 66.5889 11.0537C66.5889 11.6201 66.4733 12.1051 66.2422 12.5088C66.0143 12.9124 65.6774 13.2201 65.2314 13.4316C64.7887 13.6432 64.25 13.749 63.6152 13.749C63.2767 13.749 62.9935 13.7458 62.7656 13.7393V16H61.2129V8.56836H61.6816ZM63.5762 12.5723C64.0124 12.5723 64.3656 12.4567 64.6357 12.2256C64.9092 11.9945 65.0459 11.5973 65.0459 11.0342C65.0459 10.5622 64.9189 10.2041 64.665 9.95996C64.4111 9.71257 64.0433 9.59863 63.5615 9.61816C63.3727 9.62467 63.2181 9.63281 63.0977 9.64258C62.9805 9.64909 62.8698 9.66374 62.7656 9.68652V12.5332C62.9772 12.5592 63.2474 12.5723 63.5762 12.5723ZM67.082 9.75977V8.56836H72.8926V9.75977H70.7734V16H69.2109V9.75977H67.082Z" fill="black"/>
</svg>
