<svg width="86" height="24" viewBox="0 0 86 24" fill="none" xmlns="http://www.w3.org/2000/svg">
<rect width="86" height="24" rx="12" fill="#CB92B1"/>
<path d="M38.0586 8.49023C38.4199 8.49023 38.7194 8.50814 38.957 8.54395C39.1979 8.57975 39.4551 8.63184 39.7285 8.7002C39.9271 8.74577 40.0443 8.77181 40.0801 8.77832L39.8555 10.1455C39.8359 10.1357 39.7513 10.0902 39.6016 10.0088C39.4518 9.92415 39.25 9.85579 38.9961 9.80371C38.7422 9.74837 38.4622 9.7207 38.1562 9.7207C37.7526 9.7207 37.388 9.81999 37.0625 10.0186C36.7402 10.2171 36.4847 10.5052 36.2959 10.8828C36.1104 11.2572 36.0176 11.6982 36.0176 12.2061C36.0176 12.7204 36.1071 13.181 36.2861 13.5879C36.4684 13.9915 36.7288 14.3073 37.0674 14.5352C37.4092 14.763 37.8112 14.877 38.2734 14.877C38.485 14.877 38.7064 14.8525 38.9375 14.8037C39.1719 14.7516 39.3835 14.6898 39.5723 14.6182C39.7643 14.5433 39.9059 14.4733 39.9971 14.4082L40.002 15.6875C39.7969 15.7689 39.6146 15.8356 39.4551 15.8877C39.2988 15.9398 39.1084 15.9837 38.8838 16.0195C38.6592 16.0586 38.4069 16.0781 38.127 16.0781C37.375 16.0781 36.7191 15.9219 36.1592 15.6094C35.5993 15.2936 35.168 14.8509 34.8652 14.2812C34.5658 13.7116 34.416 13.0524 34.416 12.3037C34.416 11.5062 34.5755 10.821 34.8945 10.248C35.2168 9.67188 35.653 9.23568 36.2031 8.93945C36.7565 8.63997 37.375 8.49023 38.0586 8.49023ZM41.2373 14.3936C41.4749 14.5238 41.7614 14.6344 42.0967 14.7256C42.432 14.8167 42.7835 14.8623 43.1514 14.8623C43.5518 14.8623 43.8333 14.8021 43.9961 14.6816C44.1589 14.5579 44.2402 14.3659 44.2402 14.1055C44.2402 13.9297 44.1995 13.7816 44.1182 13.6611C44.0368 13.5374 43.8984 13.4137 43.7031 13.29C43.5111 13.1663 43.21 13.0036 42.7998 12.8018C42.2529 12.5316 41.8086 12.2158 41.4668 11.8545C41.125 11.4932 40.9541 11.0391 40.9541 10.4922C40.9541 10.0234 41.068 9.64095 41.2959 9.34473C41.527 9.04525 41.8363 8.82878 42.2236 8.69531C42.6143 8.55859 43.0553 8.49023 43.5469 8.49023C43.9701 8.49023 44.3542 8.53581 44.6992 8.62695C45.0475 8.7181 45.3031 8.81576 45.4658 8.91992L45.2119 10.126C44.9906 9.986 44.748 9.87207 44.4844 9.78418C44.224 9.69629 43.9261 9.65234 43.5908 9.65234C43.1969 9.65234 42.9121 9.71908 42.7363 9.85254C42.5638 9.98275 42.4775 10.1699 42.4775 10.4141C42.4775 10.5866 42.5199 10.7347 42.6045 10.8584C42.6924 10.9821 42.821 11.1009 42.9902 11.2148C43.1595 11.3255 43.4167 11.472 43.7617 11.6543C44.2305 11.9017 44.6032 12.1247 44.8799 12.3232C45.1598 12.5186 45.3828 12.7529 45.5488 13.0264C45.7181 13.2998 45.8027 13.627 45.8027 14.0078C45.8027 14.444 45.6969 14.8184 45.4854 15.1309C45.2738 15.4401 44.9743 15.6761 44.5869 15.8389C44.2028 15.9984 43.7568 16.0781 43.249 16.0781C42.9463 16.0781 42.6403 16.0537 42.3311 16.0049C42.0251 15.9593 41.7533 15.9023 41.5156 15.834C41.2812 15.7656 41.1152 15.7005 41.0176 15.6387L41.2373 14.3936ZM47.1357 14.3936C47.3734 14.5238 47.6598 14.6344 47.9951 14.7256C48.3304 14.8167 48.682 14.8623 49.0498 14.8623C49.4502 14.8623 49.7318 14.8021 49.8945 14.6816C50.0573 14.5579 50.1387 14.3659 50.1387 14.1055C50.1387 13.9297 50.098 13.7816 50.0166 13.6611C49.9352 13.5374 49.7969 13.4137 49.6016 13.29C49.4095 13.1663 49.1084 13.0036 48.6982 12.8018C48.1514 12.5316 47.707 12.2158 47.3652 11.8545C47.0234 11.4932 46.8525 11.0391 46.8525 10.4922C46.8525 10.0234 46.9665 9.64095 47.1943 9.34473C47.4255 9.04525 47.7347 8.82878 48.1221 8.69531C48.5127 8.55859 48.9538 8.49023 49.4453 8.49023C49.8685 8.49023 50.2526 8.53581 50.5977 8.62695C50.946 8.7181 51.2015 8.81576 51.3643 8.91992L51.1104 10.126C50.889 9.986 50.6465 9.87207 50.3828 9.78418C50.1224 9.69629 49.8245 9.65234 49.4893 9.65234C49.0954 9.65234 48.8105 9.71908 48.6348 9.85254C48.4622 9.98275 48.376 10.1699 48.376 10.4141C48.376 10.5866 48.4183 10.7347 48.5029 10.8584C48.5908 10.9821 48.7194 11.1009 48.8887 11.2148C49.0579 11.3255 49.3151 11.472 49.6602 11.6543C50.1289 11.9017 50.5016 12.1247 50.7783 12.3232C51.0583 12.5186 51.2812 12.7529 51.4473 13.0264C51.6165 13.2998 51.7012 13.627 51.7012 14.0078C51.7012 14.444 51.5954 14.8184 51.3838 15.1309C51.1722 15.4401 50.8727 15.6761 50.4854 15.8389C50.1012 15.9984 49.6553 16.0781 49.1475 16.0781C48.8447 16.0781 48.5387 16.0537 48.2295 16.0049C47.9235 15.9593 47.6517 15.9023 47.4141 15.834C47.1797 15.7656 47.0137 15.7005 46.916 15.6387L47.1357 14.3936Z" fill="black"/>
</svg>
