<svg width="86" height="24" viewBox="0 0 86 24" fill="none" xmlns="http://www.w3.org/2000/svg">
<rect width="86" height="24" rx="12" fill="#CB92B1"/>
<path d="M32.2627 8.56836V9.75977H29.2842V11.6055H31.5693V12.7822H29.2842V14.7744H32.5801V16H27.7314V8.56836H32.2627ZM35.4072 8.56836V14.8184H38.083V16H33.8545V8.56836H35.4072ZM40.9492 8.56836V16H39.3867V8.56836H40.9492ZM48.4932 16H46.7695L45.5781 13.9248L45.2168 13.2852L43.708 16H42.0869L44.3281 12.1621L42.1406 8.56836L43.8398 8.56348L45.3682 11.1953L45.7295 10.5312L46.8037 8.56836H48.4443L46.2275 12.3281L48.4932 16ZM51.1934 8.56836V16H49.6309V8.56836H51.1934ZM58.918 16H57.1895C57.1569 15.9544 57.1243 15.9007 57.0918 15.8389C57.0592 15.7738 57.0234 15.6973 56.9844 15.6094L56.916 15.4629C56.8607 15.3457 56.8086 15.2236 56.7598 15.0967C56.7142 14.9665 56.6556 14.7939 56.584 14.5791C56.4831 14.2699 56.3936 14.0225 56.3154 13.8369C56.2406 13.6481 56.1462 13.4902 56.0322 13.3633C55.9183 13.2363 55.7832 13.1729 55.627 13.1729C55.2949 13.1859 54.9678 13.1924 54.6455 13.1924V16H53.0928V8.56836H53.8105C53.9766 8.56836 54.167 8.55859 54.3818 8.53906C54.5609 8.52604 54.7692 8.51465 55.0068 8.50488C55.2445 8.49512 55.5033 8.49023 55.7832 8.49023C56.5742 8.49023 57.2171 8.66276 57.7119 9.00781C58.21 9.34961 58.459 9.92578 58.459 10.7363C58.459 11.319 58.3532 11.7845 58.1416 12.1328C57.9333 12.4811 57.6273 12.735 57.2236 12.8945C57.3962 13.041 57.5459 13.2331 57.6729 13.4707C57.8031 13.7083 57.9561 14.0322 58.1318 14.4424C58.3206 14.8981 58.4801 15.2383 58.6104 15.4629L58.918 16ZM54.6455 12.0742C54.8083 12.0938 55.1484 12.1035 55.666 12.1035C56.1055 12.1035 56.4294 11.9782 56.6377 11.7275C56.846 11.4769 56.9502 11.1611 56.9502 10.7803C56.9502 10.5589 56.9144 10.3669 56.8428 10.2041C56.7744 10.0381 56.641 9.90462 56.4424 9.80371C56.2438 9.69954 55.9622 9.64746 55.5977 9.64746C55.2103 9.64746 54.8929 9.67676 54.6455 9.73535V12.0742Z" fill="black"/>
</svg>
