<svg width="86" height="24" viewBox="0 0 86 24" fill="none" xmlns="http://www.w3.org/2000/svg">
<rect width="86" height="24" rx="12" fill="#CB92B1"/>
<path d="M28.5811 16H26.8525C26.82 15.9544 26.7874 15.9007 26.7549 15.8389C26.7223 15.7738 26.6865 15.6973 26.6475 15.6094L26.5791 15.4629C26.5238 15.3457 26.4717 15.2236 26.4229 15.0967C26.3773 14.9665 26.3187 14.7939 26.2471 14.5791C26.1462 14.2699 26.0566 14.0225 25.9785 13.8369C25.9036 13.6481 25.8092 13.4902 25.6953 13.3633C25.5814 13.2363 25.4463 13.1729 25.29 13.1729C24.958 13.1859 24.6309 13.1924 24.3086 13.1924V16H22.7559V8.56836H23.4736C23.6396 8.56836 23.8301 8.55859 24.0449 8.53906C24.224 8.52604 24.4323 8.51465 24.6699 8.50488C24.9076 8.49512 25.1663 8.49023 25.4463 8.49023C26.2373 8.49023 26.8802 8.66276 27.375 9.00781C27.873 9.34961 28.1221 9.92578 28.1221 10.7363C28.1221 11.319 28.0163 11.7845 27.8047 12.1328C27.5964 12.4811 27.2904 12.735 26.8867 12.8945C27.0592 13.041 27.209 13.2331 27.3359 13.4707C27.4661 13.7083 27.6191 14.0322 27.7949 14.4424C27.9837 14.8981 28.1432 15.2383 28.2734 15.4629L28.5811 16ZM24.3086 12.0742C24.4714 12.0938 24.8115 12.1035 25.3291 12.1035C25.7686 12.1035 26.0924 11.9782 26.3008 11.7275C26.5091 11.4769 26.6133 11.1611 26.6133 10.7803C26.6133 10.5589 26.5775 10.3669 26.5059 10.2041C26.4375 10.0381 26.304 9.90462 26.1055 9.80371C25.9069 9.69954 25.6253 9.64746 25.2607 9.64746C24.8734 9.64746 24.556 9.67676 24.3086 9.73535V12.0742ZM34.2988 8.56836V9.75977H31.3203V11.6055H33.6055V12.7822H31.3203V14.7744H34.6162V16H29.7676V8.56836H34.2988ZM39.792 14.4277H37.0625L36.5693 16H34.8994L37.6436 8.49023H39.2158L41.9844 16H40.29L39.792 14.4277ZM39.4355 13.3096L38.6299 10.7607L38.4199 9.99414L38.2051 10.7607L37.4092 13.3096H39.4355ZM46.0469 8.49023C46.4082 8.49023 46.7077 8.50814 46.9453 8.54395C47.1862 8.57975 47.4434 8.63184 47.7168 8.7002C47.9154 8.74577 48.0326 8.77181 48.0684 8.77832L47.8438 10.1455C47.8242 10.1357 47.7396 10.0902 47.5898 10.0088C47.4401 9.92415 47.2383 9.85579 46.9844 9.80371C46.7305 9.74837 46.4505 9.7207 46.1445 9.7207C45.7409 9.7207 45.3763 9.81999 45.0508 10.0186C44.7285 10.2171 44.473 10.5052 44.2842 10.8828C44.0986 11.2572 44.0059 11.6982 44.0059 12.2061C44.0059 12.7204 44.0954 13.181 44.2744 13.5879C44.4567 13.9915 44.7171 14.3073 45.0557 14.5352C45.3975 14.763 45.7995 14.877 46.2617 14.877C46.4733 14.877 46.6947 14.8525 46.9258 14.8037C47.1602 14.7516 47.3717 14.6898 47.5605 14.6182C47.7526 14.5433 47.8942 14.4733 47.9854 14.4082L47.9902 15.6875C47.7852 15.7689 47.6029 15.8356 47.4434 15.8877C47.2871 15.9398 47.0967 15.9837 46.8721 16.0195C46.6475 16.0586 46.3952 16.0781 46.1152 16.0781C45.3633 16.0781 44.7074 15.9219 44.1475 15.6094C43.5876 15.2936 43.1562 14.8509 42.8535 14.2812C42.554 13.7116 42.4043 13.0524 42.4043 12.3037C42.4043 11.5062 42.5638 10.821 42.8828 10.248C43.2051 9.67188 43.6413 9.23568 44.1914 8.93945C44.7448 8.63997 45.3633 8.49023 46.0469 8.49023ZM48.4102 9.75977V8.56836H54.2207V9.75977H52.1016V16H50.5391V9.75977H48.4102ZM54.3184 16.8008C54.6146 16.6901 54.8766 16.5241 55.1045 16.3027C55.3324 16.0814 55.4886 15.79 55.5732 15.4287C55.6351 15.1715 55.6758 14.8542 55.6953 14.4766C55.7181 14.0957 55.7295 13.6139 55.7295 13.0312V8.56836H57.292V13.0068L57.2969 14.0957C57.2969 14.4049 57.2904 14.6768 57.2773 14.9111C57.2643 15.1423 57.2383 15.3571 57.1992 15.5557C57.1178 15.9821 56.9355 16.3499 56.6523 16.6592C56.3691 16.9684 56.0469 17.2028 55.6855 17.3623C55.3275 17.5251 54.9971 17.6113 54.6943 17.6211L54.3184 16.8008ZM59.2256 14.3936C59.4632 14.5238 59.7497 14.6344 60.085 14.7256C60.4202 14.8167 60.7718 14.8623 61.1396 14.8623C61.54 14.8623 61.8216 14.8021 61.9844 14.6816C62.1471 14.5579 62.2285 14.3659 62.2285 14.1055C62.2285 13.9297 62.1878 13.7816 62.1064 13.6611C62.0251 13.5374 61.8867 13.4137 61.6914 13.29C61.4993 13.1663 61.1982 13.0036 60.7881 12.8018C60.2412 12.5316 59.7969 12.2158 59.4551 11.8545C59.1133 11.4932 58.9424 11.0391 58.9424 10.4922C58.9424 10.0234 59.0563 9.64095 59.2842 9.34473C59.5153 9.04525 59.8245 8.82878 60.2119 8.69531C60.6025 8.55859 61.0436 8.49023 61.5352 8.49023C61.9583 8.49023 62.3424 8.53581 62.6875 8.62695C63.0358 8.7181 63.2913 8.81576 63.4541 8.91992L63.2002 10.126C62.9788 9.986 62.7363 9.87207 62.4727 9.78418C62.2122 9.69629 61.9144 9.65234 61.5791 9.65234C61.1852 9.65234 60.9004 9.71908 60.7246 9.85254C60.5521 9.98275 60.4658 10.1699 60.4658 10.4141C60.4658 10.5866 60.5081 10.7347 60.5928 10.8584C60.6807 10.9821 60.8092 11.1009 60.9785 11.2148C61.1478 11.3255 61.4049 11.472 61.75 11.6543C62.2188 11.9017 62.5915 12.1247 62.8682 12.3232C63.1481 12.5186 63.3711 12.7529 63.5371 13.0264C63.7064 13.2998 63.791 13.627 63.791 14.0078C63.791 14.444 63.6852 14.8184 63.4736 15.1309C63.262 15.4401 62.9626 15.6761 62.5752 15.8389C62.1911 15.9984 61.7451 16.0781 61.2373 16.0781C60.9346 16.0781 60.6286 16.0537 60.3193 16.0049C60.0133 15.9593 59.7415 15.9023 59.5039 15.834C59.2695 15.7656 59.1035 15.7005 59.0059 15.6387L59.2256 14.3936Z" fill="black"/>
</svg>
