<svg width="86" height="24" viewBox="0 0 86 24" fill="none" xmlns="http://www.w3.org/2000/svg">
<rect width="86" height="24" rx="12" fill="#CB92B1"/>
<path d="M30.3877 8.56836V16H28.8301L26.1787 11.7959L25.5928 10.6094L25.7588 12.3818V16H24.3135V8.56836H25.7539L28.5225 12.9385L29.084 14.0518L28.9424 12.2646V8.56836H30.3877ZM31.7842 12.2451C31.8005 11.4118 31.9583 10.7201 32.2578 10.1699C32.5605 9.61654 32.9723 9.20312 33.4932 8.92969C34.0173 8.65625 34.6243 8.50977 35.3145 8.49023C35.9883 8.4707 36.5775 8.61719 37.082 8.92969C37.5866 9.24219 37.9707 9.68815 38.2344 10.2676C38.5013 10.847 38.6283 11.516 38.6152 12.2744C38.599 13.1208 38.4411 13.8288 38.1416 14.3984C37.8421 14.9648 37.4303 15.3864 36.9062 15.6631C36.3822 15.9398 35.7734 16.0781 35.0801 16.0781C34.3965 16.0781 33.8024 15.917 33.2979 15.5947C32.7965 15.2692 32.4157 14.8167 32.1553 14.2373C31.8949 13.6579 31.7712 12.9938 31.7842 12.2451ZM37.0088 12.2256C37.0088 11.7275 36.9437 11.2865 36.8135 10.9023C36.6865 10.5182 36.4928 10.2171 36.2324 9.99902C35.9753 9.78092 35.6579 9.67188 35.2803 9.67188C34.9189 9.67188 34.5967 9.76139 34.3135 9.94043C34.0303 10.1195 33.8057 10.4043 33.6396 10.7949C33.4736 11.1855 33.3906 11.6868 33.3906 12.2988C33.3906 12.7969 33.4574 13.2445 33.5908 13.6416C33.7275 14.0387 33.931 14.3512 34.2012 14.5791C34.4746 14.807 34.8083 14.9209 35.2021 14.9209C35.7718 14.9209 36.2145 14.6979 36.5303 14.252C36.8493 13.806 37.0088 13.1305 37.0088 12.2256ZM40.7539 8.56836C40.8581 8.56836 41.0664 8.55859 41.3789 8.53906C41.8151 8.50651 42.2074 8.49023 42.5557 8.49023C43.7764 8.49023 44.6878 8.79948 45.29 9.41797C45.8955 10.0365 46.1982 10.9268 46.1982 12.0889C46.1982 12.9189 46.0469 13.6335 45.7441 14.2324C45.4414 14.8314 45.0101 15.2887 44.4502 15.6045C43.8936 15.9202 43.2376 16.0781 42.4824 16.0781C42.248 16.0781 41.8997 16.0635 41.4375 16.0342C41.1543 16.0114 40.9313 16 40.7686 16H40.0166V8.56836H40.7539ZM42.5801 14.8867C43.1986 14.8802 43.682 14.6637 44.0303 14.2373C44.3818 13.8076 44.5576 13.1468 44.5576 12.2549C44.5576 11.6169 44.4795 11.109 44.3232 10.7314C44.1702 10.3506 43.9375 10.0771 43.625 9.91113C43.3125 9.74512 42.9072 9.66211 42.4092 9.66211C42.2367 9.66211 42.0267 9.67839 41.7793 9.71094L41.584 9.73047V14.7988C41.8053 14.8574 42.1374 14.8867 42.5801 14.8867ZM52.1357 8.56836V9.75977H49.1572V11.6055H51.4424V12.7822H49.1572V14.7744H52.4531V16H47.6045V8.56836H52.1357ZM52.7607 16.8008C53.057 16.6901 53.319 16.5241 53.5469 16.3027C53.7747 16.0814 53.931 15.79 54.0156 15.4287C54.0775 15.1715 54.1182 14.8542 54.1377 14.4766C54.1605 14.0957 54.1719 13.6139 54.1719 13.0312V8.56836H55.7344V13.0068L55.7393 14.0957C55.7393 14.4049 55.7327 14.6768 55.7197 14.9111C55.7067 15.1423 55.6807 15.3571 55.6416 15.5557C55.5602 15.9821 55.3779 16.3499 55.0947 16.6592C54.8115 16.9684 54.4893 17.2028 54.1279 17.3623C53.7699 17.5251 53.4395 17.6113 53.1367 17.6211L52.7607 16.8008ZM57.668 14.3936C57.9056 14.5238 58.1921 14.6344 58.5273 14.7256C58.8626 14.8167 59.2142 14.8623 59.582 14.8623C59.9824 14.8623 60.264 14.8021 60.4268 14.6816C60.5895 14.5579 60.6709 14.3659 60.6709 14.1055C60.6709 13.9297 60.6302 13.7816 60.5488 13.6611C60.4674 13.5374 60.3291 13.4137 60.1338 13.29C59.9417 13.1663 59.6406 13.0036 59.2305 12.8018C58.6836 12.5316 58.2393 12.2158 57.8975 11.8545C57.5557 11.4932 57.3848 11.0391 57.3848 10.4922C57.3848 10.0234 57.4987 9.64095 57.7266 9.34473C57.9577 9.04525 58.2669 8.82878 58.6543 8.69531C59.0449 8.55859 59.486 8.49023 59.9775 8.49023C60.4007 8.49023 60.7848 8.53581 61.1299 8.62695C61.4782 8.7181 61.7337 8.81576 61.8965 8.91992L61.6426 10.126C61.4212 9.986 61.1787 9.87207 60.915 9.78418C60.6546 9.69629 60.3568 9.65234 60.0215 9.65234C59.6276 9.65234 59.3428 9.71908 59.167 9.85254C58.9945 9.98275 58.9082 10.1699 58.9082 10.4141C58.9082 10.5866 58.9505 10.7347 59.0352 10.8584C59.123 10.9821 59.2516 11.1009 59.4209 11.2148C59.5902 11.3255 59.8473 11.472 60.1924 11.6543C60.6611 11.9017 61.0339 12.1247 61.3105 12.3232C61.5905 12.5186 61.8135 12.7529 61.9795 13.0264C62.1488 13.2998 62.2334 13.627 62.2334 14.0078C62.2334 14.444 62.1276 14.8184 61.916 15.1309C61.7044 15.4401 61.4049 15.6761 61.0176 15.8389C60.6335 15.9984 60.1875 16.0781 59.6797 16.0781C59.377 16.0781 59.071 16.0537 58.7617 16.0049C58.4557 15.9593 58.1839 15.9023 57.9463 15.834C57.7119 15.7656 57.5459 15.7005 57.4482 15.6387L57.668 14.3936Z" fill="black"/>
</svg>
