<svg width="86" height="24" viewBox="0 0 86 24" fill="none" xmlns="http://www.w3.org/2000/svg">
<rect width="86" height="24" rx="12" fill="#CB92B1"/>
<path d="M41.2373 11.9961V15.5605C41.1722 15.5638 41.1022 15.5768 41.0273 15.5996C40.9525 15.6224 40.8483 15.6566 40.7148 15.7021C40.3861 15.8161 40.0638 15.9072 39.748 15.9756C39.4355 16.0439 39.0449 16.0781 38.5762 16.0781C37.834 16.0781 37.196 15.9251 36.6621 15.6191C36.1283 15.3099 35.7214 14.8737 35.4414 14.3105C35.1647 13.7441 35.0264 13.0817 35.0264 12.3232C35.0264 11.4639 35.1859 10.7477 35.5049 10.1748C35.8271 9.60189 36.2666 9.17871 36.8232 8.90527C37.3799 8.62858 38.0163 8.49023 38.7324 8.49023C39.11 8.49023 39.4128 8.50651 39.6406 8.53906C39.8685 8.57161 40.1175 8.62044 40.3877 8.68555C40.5537 8.72786 40.7018 8.76042 40.832 8.7832L40.7832 10.1162C40.5098 9.986 40.2249 9.88835 39.9287 9.82324C39.6325 9.75488 39.2354 9.7207 38.7373 9.7207C38.3076 9.7207 37.9349 9.81999 37.6191 10.0186C37.3066 10.2139 37.0658 10.4971 36.8965 10.8682C36.7272 11.236 36.6426 11.6771 36.6426 12.1914C36.6426 12.7057 36.7109 13.1663 36.8477 13.5732C36.9844 13.9769 37.1927 14.2975 37.4727 14.5352C37.7526 14.7695 38.1009 14.8867 38.5176 14.8867C39.0156 14.8867 39.4307 14.8249 39.7627 14.7012V13.2119L38.625 13.1533V11.9961H41.2373ZM44.377 8.56836V16H42.8145V8.56836H44.377ZM45.5049 9.75977V8.56836H51.3154V9.75977H49.1963V16H47.6338V9.75977H45.5049Z" fill="black"/>
</svg>
