<svg width="86" height="24" viewBox="0 0 86 24" fill="none" xmlns="http://www.w3.org/2000/svg">
<rect width="86" height="24" rx="12" fill="#CB92B1"/>
<path d="M13.1562 16H11.4277C11.3952 15.9544 11.3626 15.9007 11.3301 15.8389C11.2975 15.7738 11.2617 15.6973 11.2227 15.6094L11.1543 15.4629C11.099 15.3457 11.0469 15.2236 10.998 15.0967C10.9525 14.9665 10.8939 14.7939 10.8223 14.5791C10.7214 14.2699 10.6318 14.0225 10.5537 13.8369C10.4788 13.6481 10.3844 13.4902 10.2705 13.3633C10.1566 13.2363 10.0215 13.1729 9.86523 13.1729C9.5332 13.1859 9.20605 13.1924 8.88379 13.1924V16H7.33105V8.56836H8.04883C8.21484 8.56836 8.40527 8.55859 8.62012 8.53906C8.79915 8.52604 9.00749 8.51465 9.24512 8.50488C9.48275 8.49512 9.74154 8.49023 10.0215 8.49023C10.8125 8.49023 11.4554 8.66276 11.9502 9.00781C12.4482 9.34961 12.6973 9.92578 12.6973 10.7363C12.6973 11.319 12.5915 11.7845 12.3799 12.1328C12.1715 12.4811 11.8656 12.735 11.4619 12.8945C11.6344 13.041 11.7842 13.2331 11.9111 13.4707C12.0413 13.7083 12.1943 14.0322 12.3701 14.4424C12.5589 14.8981 12.7184 15.2383 12.8486 15.4629L13.1562 16ZM8.88379 12.0742C9.04655 12.0938 9.38672 12.1035 9.9043 12.1035C10.3438 12.1035 10.6676 11.9782 10.876 11.7275C11.0843 11.4769 11.1885 11.1611 11.1885 10.7803C11.1885 10.5589 11.1527 10.3669 11.0811 10.2041C11.0127 10.0381 10.8792 9.90462 10.6807 9.80371C10.4821 9.69954 10.2005 9.64746 9.83594 9.64746C9.44857 9.64746 9.13118 9.67676 8.88379 9.73535V12.0742ZM18.874 8.56836V9.75977H15.8955V11.6055H18.1807V12.7822H15.8955V14.7744H19.1914V16H14.3428V8.56836H18.874ZM24.3672 14.4277H21.6377L21.1445 16H19.4746L22.2188 8.49023H23.791L26.5596 16H24.8652L24.3672 14.4277ZM24.0107 13.3096L23.2051 10.7607L22.9951 9.99414L22.7803 10.7607L21.9844 13.3096H24.0107ZM30.6221 8.49023C30.9834 8.49023 31.2829 8.50814 31.5205 8.54395C31.7614 8.57975 32.0186 8.63184 32.292 8.7002C32.4906 8.74577 32.6077 8.77181 32.6436 8.77832L32.4189 10.1455C32.3994 10.1357 32.3148 10.0902 32.165 10.0088C32.0153 9.92415 31.8135 9.85579 31.5596 9.80371C31.3057 9.74837 31.0257 9.7207 30.7197 9.7207C30.3161 9.7207 29.9515 9.81999 29.626 10.0186C29.3037 10.2171 29.0482 10.5052 28.8594 10.8828C28.6738 11.2572 28.5811 11.6982 28.5811 12.2061C28.5811 12.7204 28.6706 13.181 28.8496 13.5879C29.0319 13.9915 29.2923 14.3073 29.6309 14.5352C29.9727 14.763 30.3747 14.877 30.8369 14.877C31.0485 14.877 31.2699 14.8525 31.501 14.8037C31.7354 14.7516 31.9469 14.6898 32.1357 14.6182C32.3278 14.5433 32.4694 14.4733 32.5605 14.4082L32.5654 15.6875C32.3604 15.7689 32.1781 15.8356 32.0186 15.8877C31.8623 15.9398 31.6719 15.9837 31.4473 16.0195C31.2227 16.0586 30.9704 16.0781 30.6904 16.0781C29.9385 16.0781 29.2826 15.9219 28.7227 15.6094C28.1628 15.2936 27.7314 14.8509 27.4287 14.2812C27.1292 13.7116 26.9795 13.0524 26.9795 12.3037C26.9795 11.5062 27.139 10.821 27.458 10.248C27.7803 9.67188 28.2165 9.23568 28.7666 8.93945C29.32 8.63997 29.9385 8.49023 30.6221 8.49023ZM32.9854 9.75977V8.56836H38.7959V9.75977H36.6768V16H35.1143V9.75977H32.9854ZM49.2061 8.56836V16H47.6484L44.9971 11.7959L44.4111 10.6094L44.5771 12.3818V16H43.1318V8.56836H44.5723L47.3408 12.9385L47.9023 14.0518L47.7607 12.2646V8.56836H49.2061ZM54.9434 14.4277H52.2139L51.7207 16H50.0508L52.7949 8.49023H54.3672L57.1357 16H55.4414L54.9434 14.4277ZM54.5869 13.3096L53.7812 10.7607L53.5713 9.99414L53.3564 10.7607L52.5605 13.3096H54.5869ZM57.2139 9.75977V8.56836H63.0244V9.75977H60.9053V16H59.3428V9.75977H57.2139ZM65.7148 8.56836V16H64.1523V8.56836H65.7148ZM68.3369 8.56836L69.7236 12.626L70.1191 14.042L70.5195 12.626L71.833 8.56836H73.4883L70.7539 16.0293H69.4355L66.6719 8.56836H68.3369ZM78.9131 8.56836V9.75977H75.9346V11.6055H78.2197V12.7822H75.9346V14.7744H79.2305V16H74.3818V8.56836H78.9131Z" fill="black"/>
</svg>
