<svg width="86" height="24" viewBox="0 0 86 24" fill="none" xmlns="http://www.w3.org/2000/svg">
<rect width="86" height="24" rx="12" fill="#CB92B1"/>
<path d="M31.1689 8.56836V11.6543H34.0645V8.56836H35.5977V16H34.0645V12.8213H31.1689V16H29.6162V8.56836H31.1689ZM36.667 9.75977V8.56836H42.4775V9.75977H40.3584V16H38.7959V9.75977H36.667ZM45.9395 8.56836L46.9307 12.4746L47.3066 14.1152L47.5898 12.4746L48.4834 8.56836H50.6025L51.4912 16H49.9678L49.6016 12.0156L49.4697 9.74023L48.9229 12.0156L47.8584 16.0732H46.6279L45.4512 12.0156L44.8994 9.74023L44.7236 12.0156L44.4062 16L42.9658 16.0049L43.7568 8.56836H45.9395ZM54.3037 8.56836V14.8184H56.9795V16H52.751V8.56836H54.3037Z" fill="black"/>
</svg>
