<svg width="86" height="24" viewBox="0 0 86 24" fill="none" xmlns="http://www.w3.org/2000/svg">
<rect width="86" height="24" rx="12" fill="#CB92B1"/>
<path d="M30.1289 11.9961V15.5605C30.0638 15.5638 29.9938 15.5768 29.9189 15.5996C29.8441 15.6224 29.7399 15.6566 29.6064 15.7021C29.2777 15.8161 28.9554 15.9072 28.6396 15.9756C28.3271 16.0439 27.9365 16.0781 27.4678 16.0781C26.7256 16.0781 26.0876 15.9251 25.5537 15.6191C25.0199 15.3099 24.613 14.8737 24.333 14.3105C24.0563 13.7441 23.918 13.0817 23.918 12.3232C23.918 11.4639 24.0775 10.7477 24.3965 10.1748C24.7188 9.60189 25.1582 9.17871 25.7148 8.90527C26.2715 8.62858 26.9079 8.49023 27.624 8.49023C28.0016 8.49023 28.3044 8.50651 28.5322 8.53906C28.7601 8.57161 29.0091 8.62044 29.2793 8.68555C29.4453 8.72786 29.5934 8.76042 29.7236 8.7832L29.6748 10.1162C29.4014 9.986 29.1165 9.88835 28.8203 9.82324C28.5241 9.75488 28.127 9.7207 27.6289 9.7207C27.1992 9.7207 26.8265 9.81999 26.5107 10.0186C26.1982 10.2139 25.9574 10.4971 25.7881 10.8682C25.6188 11.236 25.5342 11.6771 25.5342 12.1914C25.5342 12.7057 25.6025 13.1663 25.7393 13.5732C25.876 13.9769 26.0843 14.2975 26.3643 14.5352C26.6442 14.7695 26.9925 14.8867 27.4092 14.8867C27.9072 14.8867 28.3223 14.8249 28.6543 14.7012V13.2119L27.5166 13.1533V11.9961H30.1289ZM33.2686 8.56836V16H31.7061V8.56836H33.2686ZM34.3965 9.75977V8.56836H40.207V9.75977H38.0879V16H36.5254V9.75977H34.3965ZM42.8242 8.56836V11.6543H45.7197V8.56836H47.2529V16H45.7197V12.8213H42.8242V16H41.2715V8.56836H42.8242ZM48.918 8.56836H50.4561L50.4463 12.7285C50.4463 13.2917 50.5 13.7262 50.6074 14.0322C50.7181 14.3382 50.8792 14.5498 51.0908 14.667C51.3024 14.7809 51.5791 14.8379 51.9209 14.8379C52.2497 14.8379 52.5182 14.776 52.7266 14.6523C52.9349 14.5254 53.0928 14.3089 53.2002 14.0029C53.3109 13.6937 53.3662 13.2689 53.3662 12.7285V8.56836H54.8945V12.875C54.8945 13.9199 54.6406 14.7158 54.1328 15.2627C53.625 15.8063 52.873 16.0781 51.877 16.0781C50.8158 16.0781 50.054 15.7965 49.5918 15.2334C49.1328 14.667 48.9049 13.8597 48.9082 12.8115L48.918 8.56836ZM57.2969 8.56836C57.4303 8.56836 57.6631 8.55859 57.9951 8.53906C58.4476 8.50977 58.7975 8.49512 59.0449 8.49512C59.6569 8.49512 60.1647 8.57324 60.5684 8.72949C60.9753 8.88574 61.2764 9.10547 61.4717 9.38867C61.667 9.66862 61.7646 9.9974 61.7646 10.375C61.7646 10.6452 61.7207 10.8958 61.6328 11.127C61.5449 11.3581 61.4163 11.555 61.2471 11.7178C61.0811 11.8773 60.8825 11.988 60.6514 12.0498C60.9443 12.0824 61.2048 12.1735 61.4326 12.3232C61.6605 12.4697 61.8379 12.6667 61.9648 12.9141C62.0951 13.1582 62.1602 13.4365 62.1602 13.749C62.1602 14.4814 61.929 15.0511 61.4668 15.458C61.0046 15.8649 60.2217 16.0684 59.1182 16.0684C58.6462 16.0684 58.0505 16.0456 57.3311 16H56.5449V8.56348L57.2969 8.56836ZM59.0156 11.6836C59.4648 11.6836 59.7887 11.5924 59.9873 11.4102C60.1859 11.2279 60.2852 10.9268 60.2852 10.5068C60.2852 10.2041 60.1647 9.98275 59.9238 9.84277C59.6862 9.7028 59.3379 9.63281 58.8789 9.63281C58.7487 9.63281 58.5957 9.6377 58.4199 9.64746C58.2441 9.65723 58.1318 9.6735 58.083 9.69629V11.6396C58.1709 11.6559 58.3125 11.6673 58.5078 11.6738C58.7031 11.6803 58.8724 11.6836 59.0156 11.6836ZM59.1621 14.9941C59.6471 14.9941 60.0052 14.9046 60.2363 14.7256C60.4707 14.5465 60.5879 14.2438 60.5879 13.8174C60.5879 13.4365 60.4723 13.1598 60.2412 12.9873C60.0133 12.8115 59.652 12.7236 59.1572 12.7236C58.9684 12.7236 58.7585 12.7269 58.5273 12.7334C58.2962 12.7399 58.1481 12.748 58.083 12.7578V14.8672C58.1449 14.916 58.2816 14.9502 58.4932 14.9697C58.708 14.986 58.931 14.9941 59.1621 14.9941Z" fill="black"/>
</svg>
